<svg xmlns="http://www.w3.org/2000/svg" width="36.2" height="36.183" viewBox="0 0 36.2 36.183">
  <g id="temp_abstract-1459N5914N59_temp" transform="translate(-1 -1)">
    <path id="Path_264" data-name="Path 264" d="M55.233,13.824l-.008-.027a.614.614,0,0,1-.02-.079A18.109,18.109,0,0,0,33.021,1.674l-.081.016h-.011a17.849,17.849,0,0,0-2.557.939,18.077,18.077,0,0,0-2.337,1.286c.127.009.248.042.373.059s.249.032.371.059a5.01,5.01,0,0,1,.549.166c.11.039.226.07.329.117a4.916,4.916,0,0,1,.549.294c.087.052.179.092.263.15a4.644,4.644,0,0,1,1.3,1.295c.034.048.068.1.1.146a4.976,4.976,0,0,1,.389.741c.022.054.041.11.06.161a5.086,5.086,0,0,1,.219.755c.006.027.014.053.02.08a5.034,5.034,0,0,1,.078.821v.2a5.047,5.047,0,0,1-.059.727c.239-.135.492-.245.741-.361.135-.064.264-.138.4-.2a10.735,10.735,0,0,1,1.275-.439,10.563,10.563,0,0,1,2.853-.393h.3a10.791,10.791,0,0,1,10.472,12.3,12.427,12.427,0,0,1-.312,1.478,10.984,10.984,0,0,1-.447,1.25c-.058.137-.133.266-.2.4-.11.237-.219.477-.344.7a5.053,5.053,0,0,1,.818-.067,4.922,4.922,0,0,1,4.116,2.194c.066.1.11.205.171.307a4.855,4.855,0,0,1,.269.512c.054.126.09.256.133.385a4.6,4.6,0,0,1,.144.487c.031.139.047.279.066.419.014.11.042.21.049.316a17.471,17.471,0,0,0,1.306-2.391,18.149,18.149,0,0,0,.85-12.763Z" transform="translate(-18.81)" fill="#fff"/>
    <path id="Path_265" data-name="Path 265" d="M32.91,39.757a3.592,3.592,0,0,0,.055-.565c0-.046.013-.091.013-.137a3.738,3.738,0,0,0-.037-.4c-.011-.1-.011-.2-.03-.3-.015-.079-.048-.154-.068-.232a3.536,3.536,0,0,0-.133-.444c-.021-.053-.056-.1-.08-.154a3.634,3.634,0,0,0-5.874-1.048c-.1.1-.213.207-.321.3a8.35,8.35,0,0,1-.636.549l-.287.219a.587.587,0,0,1-.056.039h0a.846.846,0,0,1-.084.055q-.347.247-.711.465c-.178.11-.361.2-.549.3-.063.033-.124.07-.187.1-.236.118-.476.226-.72.329l-.029.013a10.57,10.57,0,0,1-2.373.658h-.029c-.238.036-.478.063-.72.083l-.168.014c-.189.012-.379.019-.569.022-.071,0-.142.008-.219.008-.116,0-.234,0-.351-.007h-.022A10.819,10.819,0,0,1,8.757,25.67a.925.925,0,0,1,.027-.089h0a10.805,10.805,0,0,1,2.669-4.4,3.465,3.465,0,0,0,.293-.36,2.65,2.65,0,0,0,.176-.219c.05-.08.1-.189.149-.283a3.7,3.7,0,0,0,.183-.352c.019-.047.026-.1.043-.144a3.657,3.657,0,0,0-.38-3.233,3.607,3.607,0,0,0-.465-.569,3.738,3.738,0,0,0-5.157,0h0a17.462,17.462,0,0,0-1.472,1.67c-.16.2-.3.392-.439.587a.2.2,0,0,1-.023.03.542.542,0,0,1-.077.1A18.094,18.094,0,0,0,17.159,46.815l.133.019a19.039,19.039,0,0,0,5.024-.193.374.374,0,0,1,.052-.012A17.972,17.972,0,0,0,31.726,41.8c.084-.072.126-.116.169-.158a3.612,3.612,0,0,0,.409-.5c.02-.026.045-.051.064-.078a3.674,3.674,0,0,0,.534-1.3Z" transform="translate(0 -9.734)" fill="#fff"/>
  </g>
</svg>
