<svg xmlns="http://www.w3.org/2000/svg" xmlns:xlink="http://www.w3.org/1999/xlink" width="42" height="42" viewBox="0 0 42 42">
  <defs>
    <clipPath id="clip-path">
      <rect id="Rectangle_134" data-name="Rectangle 134" width="42" height="42" transform="translate(-0.189 -0.189)" fill="#fff"/>
    </clipPath>
  </defs>
  <g id="temp_abstract-685BP568BP5_temp" transform="translate(0.189 0.189)" clip-path="url(#clip-path)">
    <path id="Path_266" data-name="Path 266" d="M108.351,32.149a16.389,16.389,0,0,0-2.623-5.636c.016.186.022.374.036.56.017.221.028.441.043.664.063,1.035.107,2.083.107,3.131,0,.787-.021,1.571-.057,2.352-.012.259-.035.518-.05.777-.031.518-.065,1.045-.113,1.564-.027.305-.066.61-.1.914-.052.469-.1.937-.169,1.4-.045.322-.1.647-.149.966-.071.447-.145.892-.227,1.336-.062.327-.129.647-.2.979-.09.435-.185.87-.287,1.3-.078.327-.158.647-.242.977-.11.431-.229.861-.35,1.294-.092.32-.183.638-.282.955-.129.436-.277.868-.423,1.3-.1.3-.2.61-.313.913-.04.111-.075.225-.115.337A16.4,16.4,0,0,0,108.787,35.8a15.117,15.117,0,0,0-.437-3.65Z" transform="translate(-67.186 -17.306)" fill="#fff"/>
    <path id="Path_267" data-name="Path 267" d="M70.6,11.507c-.024-.368-.076-.726-.108-1.091-.063-.693-.129-1.386-.216-2.071A19.845,19.845,0,0,0,65.739,4.9l-.034-.018A23.263,23.263,0,0,0,54.357,2a24.249,24.249,0,0,0-3,.184c.244.344.456.7.688,1.054.259.388.517.765.754,1.156.287.472.549.955.816,1.437.22.4.447.787.646,1.189.251.494.473,1,.7,1.5.185.405.38.805.549,1.217.213.518.4,1.046.587,1.571.147.409.309.814.443,1.227.176.546.319,1.1.471,1.657.111.406.238.806.336,1.217.14.585.243,1.179.354,1.772.074.388.164.777.226,1.165.1.661.168,1.331.236,2,.035.331.089.658.114.99q.118,1.508.12,3.035c0,1.082-.05,2.156-.138,3.224,0,.065-.008.129-.013.192-.091,1.025-.226,2.04-.4,3.048-.017.1-.031.206-.049.309-.175.98-.388,1.948-.646,2.91-.032.129-.062.25-.1.373q-.388,1.421-.884,2.808c-.027.072-.044.149-.07.221a22.678,22.678,0,0,0,10.713-3.486c.1-.227.193-.452.286-.686a48.565,48.565,0,0,0,3.6-18.439Q70.718,13.169,70.6,11.507Z" transform="translate(-33.543 -1.287)" fill="#fff"/>
    <path id="Path_268" data-name="Path 268" d="M22.028,35.717c.048-.162.1-.324.149-.487a36.972,36.972,0,0,0,.762-16.593A36.948,36.948,0,0,0,16.36,3.39l-.031-.04C7.8,5.041,1.361,11.234.383,18.657c.259.074.507.167.76.25.222.072.448.139.667.219.288.106.566.229.847.347.215.091.433.175.646.272.274.129.538.272.8.412.207.107.416.208.618.322.258.148.5.311.754.469.2.129.4.243.592.374.242.166.472.347.706.518.187.141.379.274.56.421.224.183.436.378.646.569.177.157.359.308.531.471.206.2.4.405.595.611.165.172.337.339.5.518.189.211.363.435.543.647.151.186.31.366.455.557.172.225.327.463.489.7.137.2.28.388.41.59.153.237.287.483.428.726.129.21.259.415.368.632.129.246.244.5.366.752.106.223.222.44.321.667.114.259.208.532.31.8.088.225.183.448.258.677.1.286.175.58.259.87.065.219.138.435.2.656.079.312.136.63.2.947.043.208.1.413.129.623.061.36.1.725.137,1.089.019.173.05.344.066.518q.067.814.068,1.64a19.7,19.7,0,0,1-.129,2.1c-.018.179-.041.355-.065.532s-.038.374-.069.558l3.844-2.315a.842.842,0,0,1,.476-.107,19.162,19.162,0,0,0,2.417.129h.028q.3-.784.564-1.578C21.808,36.463,21.916,36.09,22.028,35.717Z" transform="translate(-0.23 -2.169)" fill="#fff"/>
    <path id="Path_269" data-name="Path 269" d="M12.686,67.386c-.036-.32-.069-.647-.12-.959-.034-.2-.081-.388-.121-.582-.057-.286-.109-.573-.18-.854-.052-.2-.118-.4-.176-.6-.076-.265-.149-.533-.236-.793-.071-.207-.155-.408-.233-.611-.094-.247-.184-.5-.288-.74-.089-.2-.19-.4-.286-.6-.111-.233-.218-.469-.339-.7-.106-.2-.225-.388-.339-.59-.129-.217-.248-.439-.388-.647s-.258-.381-.388-.57-.279-.412-.429-.61-.288-.362-.434-.541-.309-.388-.473-.569-.319-.343-.482-.518-.335-.355-.517-.518-.349-.32-.526-.478-.361-.324-.548-.479-.376-.293-.567-.437-.388-.294-.584-.432-.4-.265-.6-.395-.41-.259-.62-.388-.424-.234-.639-.347-.432-.229-.654-.335-.445-.2-.67-.3-.455-.193-.688-.281-.463-.164-.7-.243c-.153-.05-.306-.1-.46-.145v.4a15.76,15.76,0,0,0,2.835,8.941.958.958,0,0,1,.071.107,19.88,19.88,0,0,0,8.4,6.746.777.777,0,0,1,.416.983L9.978,73.991a.5.5,0,0,0,.053.47.517.517,0,0,0,.7.157l1.565-.946v-.01A17.658,17.658,0,0,0,12.81,69.4q0-.755-.062-1.5C12.735,67.726,12.706,67.558,12.686,67.386Z" transform="translate(0.02 -34.042)" fill="#fff"/>
  </g>
</svg>
